<svg width="256" height="256" viewBox="0 0 256 256" fill="none" xmlns="http://www.w3.org/2000/svg">
<circle cx="128" cy="128" r="128" fill="#004543"/>
<path d="M64.4463 56.5694C134.304 56.546 170.153 56.4133 171.96 56.4192L171.959 56.4111C174.911 56.6805 176.984 57.6488 178.159 59.3202C186.381 73.8478 163.716 83.7993 154.11 90.4885C150.688 92.5796 149.09 94.1916 149.313 95.3494C149.599 96.7073 152.286 98.2352 157.886 100.516C187.125 114.748 211.324 148.34 191.823 180.217C182.878 192.715 170.672 198.907 155.526 199.342C145.815 199.342 131.751 198.925 113.347 198.078C105.927 197.241 92.5982 197.752 73.3501 199.571C69.2478 199.769 66.9631 198.305 66.4223 195.195C66.4048 192.252 67.9051 190.209 70.9006 189.059C81.9967 182.805 87.3721 175.678 87.0142 167.727V102.022C96.5861 105.401 105.572 111.794 113.96 121.236V169.449C114.491 172.916 116.815 174.708 120.9 174.731C130.115 174.978 139.092 174.926 148.062 174.903C168.669 173.084 174.613 146.723 164.406 131.194C159.946 121.648 150.66 112.08 136.899 102.526C132.092 98.4152 131.758 94.4389 135.956 90.5716C139.631 86.8439 144.982 82.0668 151.993 76.2315C153.882 74.2638 153.882 72.7272 151.993 71.6384C151.321 71.4435 150.148 71.347 148.484 71.3694H117.622C115.62 71.6164 114.45 72.7906 114.126 74.9162V99.0931C99.5465 91.4723 90.3216 85.1641 86.4284 80.1473C86.1424 79.2684 86.1424 77.134 86.4284 73.7808C86.1815 71.4388 85.1239 70.3673 83.2006 70.5402C80.9199 70.8439 79.7125 72.8241 79.5644 76.4218C79.7372 80.0014 81.9978 83.4222 86.3262 86.654C113.439 103.219 128.466 113.469 131.426 117.414C138.795 126.847 138.388 134.437 130.202 140.098C127.05 141.814 125.334 143.524 125.137 145.24C119.097 141.538 117.176 137.285 119.319 132.469C121.348 127.757 119.72 121.983 114.433 115.207C106.864 108.474 101.58 104.631 98.5486 103.673C76.6177 93.4135 63.2606 83.8755 58.4877 75.0439V75.0304C56.8681 70.8934 56.7076 66.8637 58.0162 62.9357C59.3394 59.5738 61.4065 57.2064 64.4463 56.5694Z" fill="white"/>
</svg>
