<svg width="181" height="81" viewBox="0 0 181 81" fill="none" xmlns="http://www.w3.org/2000/svg">
<g clip-path="url(#clip0_2719_11)">
<path d="M128.261 26.997C132.558 26.0062 136.841 28.6983 137.814 33.0007C138.785 37.303 136.074 41.5756 131.77 42.5285C127.49 43.4756 123.251 40.785 122.285 36.5095C121.32 32.2339 123.991 27.9817 128.261 26.997ZM130.88 38.8565C131.96 38.4351 132.909 37.7981 133.292 36.6757C134.381 33.4842 133.018 30.1745 129.235 30.5737C125.787 31.3978 125.629 36.8969 128.168 38.4739C128.955 38.9522 129.899 39.0986 130.794 38.8809C130.822 38.8728 130.851 38.8647 130.88 38.8565Z" fill="#004543"/>
<path d="M52.4956 27.2179C54.3154 27.2124 56.6085 27.3181 58.3734 27.2146C65.6062 26.7907 68.912 35.6443 63.9089 40.391C63.8883 40.4131 63.8672 40.4346 63.8455 40.4557C61.3281 42.9069 55.7597 42.4532 52.3648 42.4079C52.3155 42.0678 52.3044 41.6779 52.3027 41.3314C52.2813 36.8997 52.2523 32.4614 52.3308 28.0308C52.3358 27.7503 52.3875 27.477 52.4956 27.2179ZM56.5215 38.5749C58.5666 38.5776 59.2923 38.7976 60.8941 37.5372C62.3572 36.3238 62.1052 33.2405 60.9387 31.8836C59.9016 30.6771 57.9801 30.8511 56.5582 30.8053C56.5953 32.4086 56.6109 34.0123 56.6049 35.616C56.6068 36.3958 56.6539 37.8837 56.5215 38.5749Z" fill="#004543"/>
<path d="M0.627064 49.6706C3.1518 49.7269 6.74251 49.4354 9.0868 49.9267C12.7626 50.6973 14.1328 55.5859 9.70708 57.1188C10.5653 57.3348 11.7788 58.1616 12.2191 58.9463C12.8937 60.1483 12.7099 61.0174 12.4192 62.2341C11.2592 64.7182 8.57194 64.9745 6.18384 64.9007C4.33422 64.8435 2.41405 64.905 0.559049 64.9136C0.356208 63.6572 0.374958 50.6415 0.627064 49.6706ZM4.66222 61.6746C5.60581 61.6649 6.9257 61.7109 7.79948 61.4267C8.12208 61.1585 8.28116 60.9175 8.31215 60.4859C8.47432 58.2275 6.14146 58.7541 4.69278 58.7678C4.81397 59.5135 4.74639 60.9077 4.66222 61.6746ZM4.66288 55.5913C5.76078 55.5518 6.80536 55.6949 7.76915 55.2349C8.40002 54.5781 8.42139 53.7624 7.7433 53.12C7.62699 53.0117 7.50484 52.9099 7.3774 52.815C6.37052 52.6136 5.71466 52.6597 4.69273 52.6885C4.76134 53.3514 4.74024 54.915 4.66288 55.5913Z" fill="#004543"/>
<path d="M33.3866 27.2363C34.3017 27.1538 36.1307 27.1564 37.0848 27.27C37.3221 27.2996 37.5564 27.5211 37.6816 27.7179C39.464 30.5201 41.1883 33.4402 42.916 36.2755C42.4961 33.675 42.7503 30.0829 42.8957 27.4272C42.9151 27.0735 46.1924 27.186 46.6246 27.311C46.7096 27.3357 46.9499 27.5153 46.9391 27.6208C46.7288 29.6768 47.4094 41.1908 46.8479 42.3563C45.9531 42.5083 43.7544 42.4061 42.7629 42.3816C41.4401 40.4172 40.2952 38.2874 39.0367 36.2768C38.4429 35.3282 37.9718 34.3651 37.3207 33.4453C37.4536 36.1152 37.4978 39.6615 37.4196 42.3514C36.4129 42.4815 34.4672 42.4258 33.3801 42.4211C33.2598 41.446 33.2884 40.0182 33.2864 39.0201L33.2805 33.981C33.2797 32.7606 33.2148 28.1054 33.3866 27.2363Z" fill="#004543"/>
<path d="M122.897 49.5889C124.289 49.8335 125.631 49.4076 127.031 50.0199L130.706 56.1859C131.284 57.1521 131.936 57.9552 132.369 58.9993C132.45 57.3723 131.97 50.9806 132.636 49.8583C133 49.5927 135.754 49.655 136.407 49.6399V59.5676C136.407 60.5271 136.531 64.1236 136.319 64.8089C135.358 65.0299 133.24 64.9177 132.252 64.7631C131.192 63.6981 130.293 61.8742 129.509 60.5632C128.573 58.9962 127.55 57.3145 126.7 55.7064C126.926 57.6238 126.836 62.7163 126.808 64.8162C126.178 64.9162 123.348 65.0385 122.898 64.7544C122.688 63.8604 122.679 50.2754 122.897 49.5889Z" fill="#004543"/>
<path d="M79.6058 58.8591C79.4963 57.5905 79.36 50.7293 79.7717 49.8589C80.1006 49.5954 82.7644 49.6548 83.5286 49.583C83.4686 50.7809 83.5077 52.2857 83.5077 53.5087L83.5168 60.5059C83.5212 61.6447 83.604 63.8227 83.4713 64.8183C82.6532 65.0472 80.3439 64.8601 79.3795 64.8156C78.6214 63.7327 74.3972 56.3091 73.9071 56.058C73.8461 56.7237 73.89 58.2142 73.8913 58.9332C73.9023 60.8985 73.8996 62.8639 73.8833 64.8291C73.2564 64.9198 70.4205 65.0292 69.9828 64.7417C69.7658 63.8555 69.7595 50.3179 69.9825 49.6058C71.0255 49.7833 72.8271 49.5241 73.694 49.775C74.5312 50.0174 76.0605 52.9558 76.5524 53.7767C77.5626 55.4623 78.6419 57.1725 79.6058 58.8591Z" fill="#004543"/>
<path d="M109.26 27.2407C110.703 27.2037 112.547 27.0386 113.943 27.3575C114.143 27.4034 114.436 27.9538 114.501 28.1598C115.545 31.4509 116.952 34.6099 117.972 37.9083C118.21 38.5833 118.594 39.2572 118.808 39.9363C119.067 40.7595 119.216 41.5139 119.528 42.3319C118.474 42.4911 116.483 42.4374 115.394 42.3737C115.146 41.5743 114.766 40.3408 114.488 39.5171C114.445 39.3931 114.217 39.4181 114.072 39.4133C112.647 39.3811 110.463 39.2599 109.047 39.4649C108.229 39.5834 108.315 42.0276 107.623 42.2877C107.063 42.498 104.531 42.4686 103.929 42.3453C103.727 42.0475 103.86 41.7499 103.971 41.4206C105.541 36.8136 107.304 32.2753 108.882 27.6713C108.947 27.4822 109.106 27.3434 109.26 27.2407ZM111.709 36.1316L113.317 36.1234C112.718 35.04 111.879 31.6182 111.48 31.3125C111.13 32.5564 110.394 35.0449 109.821 36.134L111.709 36.1316Z" fill="#004543"/>
<path d="M74.3435 27.2514C75.5767 27.193 77.8039 27.1011 78.9776 27.3549C79.4914 27.466 80.7859 31.7531 81.0153 32.3714C81.2474 32.9973 81.6437 33.8203 81.8511 34.4146C82.7613 37.0237 83.5871 39.8282 84.7046 42.3463C83.541 42.477 81.7499 42.4265 80.5354 42.4193C80.0681 41.2146 79.9295 40.7909 79.5713 39.5225C79.3208 39.3414 79.3866 39.3966 79.0204 39.4002C77.8075 39.3634 74.841 39.474 73.8139 39.2904C73.5952 39.9468 73.0785 42.2506 72.3418 42.3641C71.7109 42.4612 69.3627 42.5179 68.7809 42.271L68.7209 42.0997C70.3876 37.7001 71.8538 33.1735 73.5294 28.7737C73.7337 28.237 73.8612 27.5997 74.3435 27.2514ZM76.6119 36.1346L78.4289 36.1226C77.7586 35.1474 77.0521 31.8942 76.5146 31.4848C76.1628 32.6862 75.4639 35.1721 74.7203 36.1176L76.6119 36.1346Z" fill="#004543"/>
<path d="M55.4713 49.7062C56.7755 49.6259 58.9099 49.5094 60.094 50.0217L63.8151 60.319C64.2853 61.5878 64.9054 63.5937 65.4772 64.7417C64.3944 64.9838 62.5654 64.906 61.41 64.8771C60.6644 63.8949 60.7557 62.8789 60.2194 61.8103C60.1581 61.6881 59.8901 61.7075 59.7332 61.6977C58.0468 61.6844 56.3602 61.6896 54.6739 61.7131C54.4149 62.7394 53.9048 63.9032 53.4608 64.8702C52.8271 64.9227 50.1577 64.9897 49.7136 64.7018C49.7695 63.4784 54.062 51.9472 54.8287 50.0675C54.9361 49.8039 55.2291 49.7642 55.4713 49.7062ZM55.5775 58.6723C56.2316 58.569 56.5554 58.575 57.2232 58.5852L59.0952 58.5931C58.9086 58.0988 57.471 53.965 57.3802 53.8927C56.9379 55.1973 56.2124 57.532 55.5775 58.6723Z" fill="#004543"/>
<path d="M108.593 49.7088C109.702 49.6795 111.22 49.5768 112.303 49.7435C112.572 49.7964 112.665 49.9234 112.785 50.1604C113.571 51.7113 113.929 53.414 114.689 54.9915C114.842 55.4851 115.081 56.158 115.207 56.6368C115.566 57.9978 118.142 63.7473 117.858 64.7401C117.292 65.0466 114.673 64.8854 113.903 64.86C113.59 63.8479 113.236 62.7542 112.965 61.7354L111.676 61.6983C110.227 61.6827 108.776 61.692 107.326 61.7263C107.188 62.3597 106.639 64.9174 105.762 64.9047C105.178 64.8961 102.859 64.9876 102.444 64.6814C102.544 63.667 107.17 50.617 107.714 49.9765C107.926 49.7268 108.289 49.7351 108.593 49.7088ZM108.51 58.6622C109.107 58.607 109.525 58.5738 110.122 58.5819L111.85 58.575C111.778 58.2415 110.281 53.9577 110.2 53.8797C109.628 55.3477 108.903 57.1624 108.51 58.6622Z" fill="#004543"/>
<path d="M93.5519 27.0682C93.8787 27.042 94.2054 27.0233 94.533 27.0118C96.8281 26.9424 98.6459 27.082 100.369 28.7046C100.455 30.0317 100.446 31.3632 100.344 32.6892C100.208 32.5297 100.07 32.3729 99.9291 32.2187C98.2566 30.4023 94.3683 30.0623 92.5418 31.8401C91.0983 33.2459 90.8711 36.126 92.3287 37.5323C94.622 39.7441 98.2637 38.9372 100.388 36.9116C100.468 37.6226 100.523 38.3364 100.552 39.0514C100.647 41.9748 99.0246 41.834 96.6582 42.5184C96.3807 42.5986 96.0469 42.6208 95.855 42.8249L95.8849 42.9765L96.1121 43.0253C99.7494 44.4304 98.224 47.6247 94.9593 47.725C94.0037 47.7544 92.5374 47.5158 92.6924 46.3041C92.7223 46.0699 92.6765 45.8722 92.8579 45.7016C93.714 45.972 95.3979 46.7175 95.7431 45.2925C95.9967 44.2471 93.5942 44.8269 93.1459 44.2722C93.0367 43.5661 93.433 43.1003 93.7607 42.4476L93.7263 42.4436C87.9856 41.7084 85.4896 35.5679 88.0534 30.6985C89.2445 28.4368 91.2701 27.6856 93.5519 27.0682Z" fill="#004543"/>
<path d="M18.0019 49.6091C19.1493 49.7777 20.3274 49.5474 21.4688 49.688C21.7164 49.7185 21.8853 49.7518 22.0274 49.974C22.9767 51.4572 21.3777 59.172 22.7899 60.8862C23.0987 61.261 23.5055 61.4403 23.983 61.4837C24.9956 61.5758 25.6365 61.2094 26.3838 60.5889C26.8743 59.1366 26.5392 54.1493 26.6524 52.3421C26.7001 51.5796 26.5736 50.6675 26.8633 49.8748C27.2319 49.5905 30.112 49.6505 30.8478 49.6237L30.8477 52.9207C30.8206 55.3094 30.9602 57.7494 30.8085 60.1377C30.3846 66.8125 18.2996 66.6703 18.0403 60.118C17.958 58.0381 17.5411 51.2841 18.0019 49.6091Z" fill="#004543"/>
<path d="M23.9513 27.2447C24.9511 27.1401 27.1269 27.2232 28.1678 27.2465C28.1432 28.4951 28.0915 29.6202 28.0881 30.899C28.1042 36.154 29.033 41.1841 23.4708 42.3907C19.9001 43.1652 15.5925 41.6737 15.3118 37.7565C15.2043 36.2575 14.9812 27.8122 15.4073 27.2279C16.4869 27.1653 17.9338 27.1622 18.9951 27.2936C19.5977 27.3683 19.4373 29.5575 19.4332 30.0838L19.403 34.3906C19.3971 35.8239 19.2336 37.0052 19.8958 38.3163C21.2135 39.168 21.8375 39.2135 23.1968 38.4449C23.4535 37.9812 23.7226 37.4201 23.7695 36.8904C24.0507 33.7181 23.7885 30.4274 23.9513 27.2447Z" fill="#004543"/>
<path d="M0.542861 27.2495C1.55322 27.1426 9.98804 27.1351 10.5969 27.3597C10.907 27.7703 10.7779 30.206 10.5838 30.6602C10.1859 30.962 5.53037 30.838 4.68257 30.8424C4.77872 31.5671 4.72862 32.4628 4.66893 33.1866C6.61258 33.1255 8.13973 33.3714 10.1853 33.0711C10.2852 34.0381 10.2722 35.5667 10.261 36.553C10.237 36.5929 10.2439 36.5863 10.2039 36.6257C9.87399 36.9514 5.387 36.7771 4.69637 36.7687C4.70532 36.8613 4.71259 36.9541 4.71818 37.0469C4.7559 37.6747 4.7768 41.9585 4.5264 42.2412C3.83773 42.5493 1.41464 42.4335 0.532616 42.412C0.432793 41.4802 0.47167 40.1923 0.471081 39.2303L0.469155 34.02L0.472261 29.6892C0.474805 29.0654 0.456397 27.8272 0.542861 27.2495Z" fill="#004543"/>
<path d="M35.5192 49.581C36.614 49.7655 46.4779 49.7416 47.5954 49.5522C47.6345 50.8151 47.6441 52.0787 47.6241 53.342C46.5226 53.4234 44.7944 53.3854 43.6699 53.352C43.7411 55.9214 43.6845 58.7445 43.6858 61.3335C43.6939 65.9111 44.0565 64.8786 39.4753 64.8723C39.3203 61.3525 39.4401 56.9118 39.4517 53.3166C38.4653 53.4642 36.8665 53.378 35.8483 53.3595C35.1375 53.3467 35.3791 50.0978 35.5192 49.581Z" fill="#004543"/>
<path d="M99.4736 49.6396L100.348 49.6492C100.394 50.744 100.438 52.2571 100.35 53.3257C99.293 53.4394 97.4119 53.3811 96.3216 53.3561C96.3911 55.0352 96.5048 63.7915 96.2265 64.7673C95.8645 64.9784 92.9573 64.9059 92.2721 64.9241C92.1321 64.1227 92.1568 62.7268 92.1524 61.884C92.148 59.5538 92.0159 55.5415 92.1894 53.3438C91.1457 53.4255 89.3509 53.3881 88.2738 53.3574C88.2033 52.6748 88.1197 50.3927 88.3795 49.8257C88.9396 49.5767 98.053 49.6809 99.4736 49.6396Z" fill="#004543"/>
<path d="M76.3348 74.7088C78.8588 74.6497 78.5555 78.0857 78.3627 79.7727C78.3208 80.1397 76.6641 80.016 76.5259 79.9512C76.2966 79.483 76.3962 77.171 76.3825 76.4818C76.2145 76.4689 75.5424 76.4118 75.4535 76.4547C74.4325 77.0604 75.4057 78.852 74.9917 79.7045C74.7992 80.101 73.5739 80.1455 73.2506 79.8968C72.8835 79.4433 72.9389 78.5703 72.9182 77.9621C72.9355 77.1948 73.09 76.767 72.4596 76.2501C71.2791 75.9983 72.2618 79.4597 71.1642 80.0518C70.7043 80.0333 70.1063 80.0681 69.7641 79.7892C69.599 79.0132 69.5298 75.5314 69.7988 74.8797C70.0501 74.7414 71.124 74.8874 71.4871 74.8797C73.0984 74.8452 73.4265 74.4505 74.7133 75.5469C75.3177 74.9296 75.5058 74.9332 76.3348 74.7088Z" fill="#004543"/>
<path d="M109.213 22.578C111.119 22.3064 111.773 23.3096 113.452 23.8615C114.242 23.4347 114.954 22.3157 115.946 22.6744C116.706 23.2396 115.885 24.8914 115.368 25.4304C114.951 25.8656 114.71 26.0028 114.141 26.168C112.206 26.5661 111.554 25.1292 109.898 24.8586C109.442 24.7841 108.535 25.9428 107.921 25.974C107.669 26.0659 106.957 25.7372 107.004 25.4157C107.243 23.7869 107.691 22.7859 109.213 22.578Z" fill="#004543"/>
<path d="M106.199 74.6496C108.458 74.3915 109.352 75.9026 109.298 77.9428C108.706 77.8426 106.059 77.6215 105.803 78.1702C106.268 78.9931 107.254 78.3721 107.988 78.3815C108.32 78.3856 108.747 78.3232 109.056 78.2002L109.21 78.2757C108.629 80.321 106.195 80.5859 104.634 79.4969C103.175 78.4798 103.46 75.4649 105.243 74.8527C105.657 74.7105 105.743 74.6817 106.199 74.6496Z" fill="#004543"/>
<path d="M111.895 74.6282C113.687 75.4181 114.909 74.1072 116.766 75.2841C117.151 76.2006 118.143 81.3211 115.433 79.7855C115.232 79.6715 115.236 78.8426 115.224 78.5835C115.185 78.0428 115.195 76.6603 114.722 76.3425C113.19 76.1892 113.669 78.8936 113.588 80.0038C113.219 80.0002 112.175 80.0751 111.963 79.9249C111.674 79.175 111.681 75.4139 111.895 74.6282Z" fill="#004543"/>
<path d="M25.6522 73.3792C26.2275 73.2792 26.4451 73.3427 26.4875 73.9428C26.5845 75.3147 28.308 75.343 26.6132 76.4986C26.5897 77.295 26.6016 79.0908 26.4008 79.8812C26.3654 80.0205 26.1797 80.0481 26.0459 80.0882C25.6015 79.9842 25.0997 80.002 24.6394 79.9971C24.5549 78.6552 24.1971 75.8993 24.2327 74.8322C24.7507 73.983 24.7432 73.7379 25.6522 73.3792Z" fill="#004543"/>
<path d="M99.9711 74.8062C100.075 74.8024 100.179 74.801 100.283 74.8017C102.026 74.821 101.673 77.9683 101.545 79.1184C101.495 79.5706 101.377 79.7505 101.051 80.0617C100.628 80.0572 99.9984 80.0982 99.6646 79.863C99.2392 79.1771 99.3317 75.4794 99.9711 74.8062Z" fill="#004543"/>
<path d="M126.846 74.7104C127.21 74.7466 127.575 74.7803 127.939 74.8118C127.987 75.674 128.063 79.2055 127.885 79.8832C127.682 80.0881 127.701 80.023 127.329 80.0469C127.013 80.0185 126.388 80.0214 126.186 79.819C126.01 78.9182 125.936 76.109 126.237 75.1361C126.317 74.8763 126.598 74.7918 126.846 74.7104Z" fill="#004543"/>
<path d="M106.356 71.6905C107.016 71.6605 108.984 72.7906 108.401 73.8322C107.774 74.2854 107.047 73.6576 106.614 73.1819C106.35 73.1381 105.664 74.0663 104.944 73.9868C103.349 73.3001 105.843 72.0061 106.356 71.6905Z" fill="#004543"/>
<path d="M31.6612 72.4153C32.3346 72.418 34.5133 72.4757 34.6555 73.1782C34.5191 73.5872 34.0871 73.7757 33.7215 73.972C33.1949 74.1148 31.2016 73.947 30.764 73.4927C30.6204 72.8761 31.1839 72.6423 31.6612 72.4153Z" fill="#004543"/>
<path d="M126.828 71.7788C127.847 71.7894 128.392 72.6387 127.876 73.531C127.722 73.7975 127.385 73.8314 127.101 73.8924C125.511 73.6693 125.526 72.4179 126.828 71.7788Z" fill="#004543"/>
<path d="M99.9361 71.7932C100.612 71.8001 101.123 71.8588 101.472 72.5242C101.791 73.131 101.318 73.5375 100.855 73.7797C99.2359 74.1051 98.9655 72.8952 99.9361 71.7932Z" fill="#004543"/>
<path d="M53.3378 71.7783C53.9288 72.1606 53.8179 72.128 54.5042 72.4184C53.765 73.0361 53.6194 73.5233 52.8063 74.0167C52.5334 74.0275 52.1484 73.9033 51.9767 73.6776C51.7694 72.9807 52.796 72.1065 53.3378 71.7783Z" fill="#004543"/>
<path d="M148.358 0H155.261C155.951 0.344891 156.263 0.339778 157.02 0.454854C158.479 0.67647 160.044 1.02472 161.431 1.5275C168.955 4.24869 175.004 9.98503 178.121 17.3554C178.386 17.978 178.751 18.686 179.004 19.3237C179.389 20.2932 180.009 24.6264 180.366 25.1057V32.4197L180.349 32.4511C179.922 33.2335 179.858 34.6347 179.634 35.5334C177.219 45.2028 169.567 53.3878 159.939 56.1313C158.134 56.6457 155.154 57.2763 153.254 57.2656C152.535 57.1734 151.723 57.2461 150.7 57.1107C151.302 56.9502 152.955 56.9815 153.299 56.7367C155.604 56.5558 159.86 55.3459 161.972 54.4347C169.07 51.3727 174.216 45.8897 177.16 38.8262C177.393 38.1553 177.514 37.7874 177.652 37.0949C177.338 37.4715 177.007 37.8352 176.664 38.1853C176.149 38.5597 175.722 39.0151 175.245 39.4253C173.268 41.1282 171.064 42.4401 168.727 43.5866C168.221 43.8351 167.761 44.0295 167.255 44.3139C166.856 45.1777 166.604 45.4983 165.962 46.2054C166.003 46.8111 166.054 47.357 166.007 47.9635C165.965 48.307 165.992 49.4412 165.992 49.8317C165.503 48.824 165.6 48.3037 165.347 47.2554C165.306 46.8702 165.328 46.6285 164.956 46.4619C164.778 46.4918 164.574 46.6394 164.479 46.7965C163.888 47.7764 159.721 53.4802 158.922 53.4727L158.872 53.3369C159.015 52.9678 159.438 52.564 159.666 52.2717C160.226 51.5535 163.669 46.6363 163.578 45.956C163.346 45.7428 163.092 45.7417 162.786 45.8125C161.767 46.1135 160.785 46.3451 159.755 46.5692C156.914 47.1868 154.378 47.8454 151.436 47.8244C150.328 47.8165 149.497 47.9686 148.322 47.8081C150.778 47.6175 153.495 46.5891 156.076 46.342C157.799 46.1771 160.895 45.1787 162.578 44.5085C162.668 43.9861 162.737 43.3561 163.02 42.9253L163.052 42.877C163.322 42.4653 163.838 42.14 164.245 41.846C164.051 40.5053 163.336 38.5648 162.849 37.2985C160.891 32.1162 157.924 27.3738 154.122 23.3455C153.536 22.7265 152.763 22.0428 152.128 21.4222C151.605 21.5888 151.064 21.7497 150.512 21.7785C150.082 21.8011 148.878 21.6434 148.546 21.8266C147.923 22.1699 145.623 28.5697 145.314 29.5741C144.983 30.6492 144.8 31.7789 144.445 32.8403C144.323 33.2074 144.047 34.1378 143.735 34.3514C143.723 34.33 143.71 34.309 143.699 34.2871C143.13 33.1413 145.509 25.6799 146.014 24.3668C146.526 23.0347 147.268 21.8017 147.685 20.4322C146.093 20.8413 141.718 22.658 140.592 22.6937L140.55 22.5924C141.243 21.7659 141.713 22.0306 142.326 21.6181C143.755 20.6544 145.109 20.2647 146.705 19.6902C147.2 19.5123 147.197 18.4825 147.385 17.9062C147.006 17.6545 146.623 17.4067 146.239 17.1627C144.434 16.0201 141.505 14.7737 139.478 13.9873C138.766 13.7106 137.643 13.4948 136.878 13.248C136.428 13.129 135.288 12.5616 134.848 12.7138C133.992 13.0092 133.863 13.4334 132.827 13.6672C132.332 15.1204 131.869 16.5843 131.438 18.058L131.276 18.0505L131.137 18.3639C130.897 18.0231 131.243 16.2631 131.251 15.7303L131.252 15.6602C131.403 15.0634 131.801 13.7952 131.878 13.287C131.597 13.4022 130.745 13.7435 130.522 13.8929C129.836 14.3545 129.563 14.7658 128.692 14.9875L128.767 14.8008L128.775 14.9611L128.774 14.7878C129.429 14.2707 131.239 12.9592 131.509 12.3051L131.451 12.1341C130.988 11.9509 130.107 11.8134 129.587 11.716C128.248 12.7247 127.367 14.6329 126.579 16.0877C126.344 16.522 126.091 16.6682 125.922 17.1676C125.73 16.8227 125.963 16.2882 126.071 15.8528C127.057 14.2848 127.592 12.8835 128.833 11.2113C132.801 5.86444 138.524 2.16011 145.028 0.761603C145.724 0.611951 148 0.370311 148.358 0ZM153.217 18.8068C153.112 19.2495 152.991 19.725 152.898 20.1668C153.953 21.1882 155.184 22.2187 156.159 23.3282C158.454 25.9402 160.155 28.5096 161.788 31.5613C162.601 33.0807 163.062 34.8523 163.837 35.9818C164.125 37.2119 165.17 41.3278 165.68 42.3216C166.165 40.2076 167.167 37.9763 167.579 35.803C168.671 30.0611 167.964 24.1323 165.971 18.6705C165.04 18.5651 164.347 18.0121 163.732 17.3241C163.719 17.3102 163.499 17.2983 163.46 17.3055C160.717 17.5831 158.059 17.7668 155.37 18.3759C154.727 18.5215 153.814 18.6291 153.217 18.8068ZM134.053 11.3134C137.233 9.30937 144.785 8.59762 148.609 8.92838C150.099 9.10676 151.959 9.55198 153.396 9.58228C154.447 9.60439 154.569 9.10571 156.049 9.22313C161.169 5.04452 159.002 7.28482 157.962 2.70217C158.501 3.20471 159.634 4.50083 160.074 5.1108C161.972 5.19189 162 4.8089 163.492 3.86058C161.422 3.20273 159.018 2.02227 156.898 1.60885C155.312 1.29979 152.328 1.06888 150.75 1.18208C149.133 1.27183 146.54 1.37162 145.026 1.84755C143.684 2.26897 140.65 3.04296 139.615 3.7922C137.903 5.03121 134.569 9.42451 134.053 11.3134ZM151.735 16.4287C152.134 16.8122 152.652 17.284 152.985 17.7066C153.999 17.4877 157.246 16.6391 157.976 16.565C158.578 16.5012 163.665 16.1593 163.807 15.9981C163.637 15.0925 157.741 12.0346 156.753 12.2402C156.448 12.3744 156.097 12.5321 155.784 12.6221C155.501 12.7038 154.646 12.7825 154.454 12.9114C153.775 13.3689 152.017 15.7608 151.735 16.4287ZM166.583 43.0522C168.338 42.1947 170.127 41.6559 171.743 40.5232C172.021 40.3284 172.432 40.2172 172.7 40.0117C174.648 38.6847 177.05 36.9533 178.283 34.9092C178.538 34.4877 178.615 33.3845 178.823 32.8288C176.352 27.437 171.935 22.48 167.699 18.505C167.651 18.4589 167.629 18.4312 167.57 18.3893C167.52 18.7744 168.701 22.7107 168.848 23.4541C169.956 29.1128 169.749 34.2576 167.909 39.7415C167.512 40.9267 166.945 41.8276 166.583 43.0522ZM162.611 13.4391C163.083 13.7409 163.487 13.9556 163.983 14.2162L164.058 14.1652C164.014 13.0879 161.667 9.45428 161.09 8.21195C160.857 8.14286 159.607 7.73771 159.473 7.72822C158.867 8.19802 156.966 9.63522 157.011 10.4154C157.79 11.3765 160.432 11.9795 161.522 12.7585C161.733 12.9097 162.389 13.3314 162.611 13.4391ZM164.147 4.31443C163.422 4.76177 162.635 5.31664 161.945 5.72791C162.054 6.2345 161.969 7.6779 162.073 7.85747C163.205 9.80233 164.412 11.7912 165.48 13.7551C166.128 14.9474 167.395 13.6562 168.288 16.183C170.448 16.3538 172.774 16.4441 174.792 17.1547C175.195 17.2707 176.031 17.553 176.401 17.4962C176.564 17.1315 175.661 15.638 175.425 15.2004C172.925 10.5656 168.878 6.82776 164.257 4.35842C164.221 4.34375 164.184 4.32909 164.147 4.31443ZM131.465 11.4068C132.122 10.7674 132.291 10.6688 133.179 10.3969C133.935 8.85007 134.406 8.09646 135.465 6.71872C135.791 6.5861 136.225 5.79674 136.413 5.48325C135.948 5.75788 135.531 6.03555 135.165 6.43477C133.486 7.2223 130.809 9.88514 129.707 11.3612C130.274 11.3585 130.908 11.3405 131.465 11.4068ZM168.251 17.2113L168.227 17.3817C170.011 19.0337 171.394 20.3297 172.866 22.243C174.356 24.1795 175.799 25.9914 177.053 28.1118C177.643 29.0232 178.112 30.5269 178.979 31.2107C178.849 30.0298 178.953 28.7286 178.904 27.517C178.791 24.1879 178.05 20.9102 176.72 17.8561C175.886 17.8906 175.159 17.7317 174.347 17.6449C172.768 17.4761 169.802 17.047 168.251 17.2113ZM143.874 9.81739C142.308 9.92513 140.696 10.2277 139.142 10.4627C137.726 10.6766 136.378 11.3287 135.032 11.7509C136.682 12.1622 138.367 12.3585 139.968 12.9149C142.08 13.649 144.324 14.425 146.229 15.5968C146.718 15.9181 147.42 16.2695 147.95 16.5523C148.697 16.479 149.929 16.0216 150.657 15.7404C151.441 14.3562 152.379 13.386 153.255 12.1005C153.473 11.7825 153.39 10.957 152.941 10.8264C150.165 10.0018 146.739 9.74269 143.874 9.81739Z" fill="#004543"/>
<path d="M135.165 6.43467C135.531 6.03545 135.948 5.75778 136.414 5.48315C136.225 5.79664 135.791 6.586 135.465 6.71862L135.165 6.43467Z" fill="#004543"/>
<path d="M0 74.8023C0.705955 73.6356 1.22713 72.6616 2.67675 72.3682C4.92527 71.9133 6.13386 72.3688 7.43944 74.2148C6.6996 74.7613 6.35485 74.865 5.47122 75.1416C5.17675 74.6405 4.70893 74.2381 4.14513 74.0795C3.80329 73.985 3.43783 74.0309 3.13005 74.2072C2.67787 74.4701 2.33484 75.0349 2.22841 75.5333C2.01353 76.5397 2.24916 76.9667 2.73452 77.7509C2.75212 77.7792 2.76998 77.8074 2.78811 77.8354C3.1887 78.0349 3.49566 78.1933 3.92025 78.3437C4.24466 78.1701 5.19435 77.7145 5.34843 77.4376C5.12595 77.1773 4.124 77.1846 4.0611 77.0691C2.90471 74.9454 6.42273 75.6476 7.76241 75.5103C7.7365 76.3758 7.75978 77.1155 7.3838 77.9199C6.19497 80.463 3.77616 80.3197 1.58111 79.5013C0.951045 78.751 0.579358 78.2423 0 77.4715V74.8023Z" fill="#004543"/>
<path d="M82.7512 80.1629C80.2661 79.3544 79.8218 76.0072 82.1734 74.8659C83.1456 74.3941 85.0832 75.0062 86.2701 74.8844C87.0018 74.8092 86.8165 79.2525 86.693 79.7191C86.3953 80.0179 86.1261 80.0102 85.6959 80.0063C84.5607 79.9961 84.4569 79.7837 83.3682 80.1629H82.7512ZM83.8879 78.3823C85.0359 77.7946 85.082 76.4314 83.5347 76.473C83.2797 76.5379 83.0399 76.5416 82.9104 76.7875C82.4838 77.5972 83.0177 78.3751 83.8879 78.3823Z" fill="#004543"/>
<path d="M31.5266 80.1629C30.7345 79.9012 30.0364 79.5732 29.6949 78.7928C29.1115 77.4599 29.2569 75.5514 30.7669 74.9112C31.8541 74.4501 32.6799 74.7731 33.7989 74.7766C34.2694 74.7736 34.8454 74.7067 35.3197 74.6545C35.377 76.3143 35.4467 78.367 35.347 80.0262C33.968 80.0092 33.3602 79.7263 32.1226 80.1629H31.5266ZM32.4987 78.3862C32.9073 78.1086 33.2018 77.9726 33.2986 77.4595C33.4189 76.8219 32.8694 76.4723 32.3275 76.3789C31.0128 76.781 31.1116 78.3146 32.4987 78.3862Z" fill="#004543"/>
<path d="M132.448 80.1628C130.479 79.3327 129.997 77.9096 130.738 75.8528C131.216 74.5305 133.25 74.3893 134.274 74.9408C134.2 74.9005 136.176 74.7465 136.381 74.7437C136.429 76.1536 136.48 78.6293 136.384 80.0085C135.402 80.0593 135.126 80.0783 134.191 79.7774C133.851 79.9151 133.495 80.0707 133.142 80.1628H132.448ZM133.618 78.4712C134.032 78.0383 134.324 77.7952 134.282 77.1456C134.251 76.6563 133.804 76.3585 133.352 76.3797C131.859 76.8632 132.243 78.0383 133.618 78.4712Z" fill="#004543"/>
<path d="M40.0199 80.1627C39.087 79.8216 38.266 79.4814 37.8875 78.5005C36.2973 74.3787 42.9543 73.0319 43.7889 76.9675C44.1226 78.5412 42.7941 79.7864 41.2809 80.1627H40.0199ZM40.8276 78.4073C42.1492 77.6965 41.5735 76.3351 40.7579 76.3793C39.3483 76.8519 39.3977 77.8103 40.7279 78.3675C40.7609 78.3812 40.7942 78.3945 40.8276 78.4073Z" fill="#004543"/>
<path d="M12.4229 80.1628C11.9717 80.055 11.4661 79.9693 11.0752 79.7069C9.40087 78.5832 9.45706 76.0334 11.2191 75.0268C12.557 74.2624 14.4731 74.5616 15.2245 75.994C15.6993 76.8824 15.5757 77.5711 15.3322 78.4836C14.9805 79.8012 14.0607 80.0046 12.8518 80.1628H12.4229ZM15.0995 78.3362L15.1669 78.0844C14.716 77.6845 12.6139 77.8645 11.8457 77.8636C12.0268 78.1388 12.2424 78.5284 12.567 78.5439C13.5238 78.5897 14.0533 78.3507 15.0995 78.3362Z" fill="#004543"/>
<path d="M50.704 79.6793C50.0625 78.676 49.6469 77.9008 49.8435 76.6551C50.2079 74.3459 53.8974 73.888 54.9521 75.8443C55.2549 76.4058 55.7503 77.3364 55.1272 77.8567C54.3289 78.2055 52.1643 77.5034 51.8044 78.033C52.118 79.4328 54.3941 77.6763 55.094 78.482C55.1192 78.95 54.7026 79.4515 54.4045 79.7991C53.7034 79.9861 53.2906 80.0612 52.5702 80.1628H52.3409C51.7571 80.0324 51.2481 79.9372 50.704 79.6793ZM52.6853 76.4924C53.0442 76.5416 53.0403 76.6032 53.295 76.4598C53.2245 76.1316 52.906 76.0433 52.6023 76.0249C52.3673 76.0954 52.1518 76.1299 52.0148 76.3332L52.0731 76.4601C52.3061 76.5463 52.4427 76.5156 52.6853 76.4924Z" fill="#004543"/>
<path d="M52.6024 76.0249C52.9061 76.0433 53.2246 76.1316 53.2952 76.4598C53.0404 76.6032 53.0443 76.5416 52.6854 76.4924C52.4428 76.5156 52.3062 76.5463 52.0732 76.4601L52.0149 76.3331C52.1519 76.1299 52.3674 76.0954 52.6024 76.0249Z" fill="#004543"/>
<path d="M63.5987 80.1628C62.806 79.886 62.2661 79.7412 61.826 78.9303C61.4656 78.2664 61.4726 75.4744 61.9716 74.9803C62.251 74.9333 62.9228 74.9328 63.173 75.1103C63.879 76.0693 63.1075 78.1723 64.2256 78.5245C66.137 78.2439 64.3626 75.226 65.8964 74.8095C66.1679 74.7358 66.6687 74.7212 67.0064 74.6318C67.0162 75.0341 67.0455 75.4544 67.0356 75.8548C66.9749 78.3239 67.7325 79.5616 64.8778 80.1628H63.5987Z" fill="#004543"/>
<path d="M18.0691 75.4822C18.3127 75.2641 18.6809 74.9663 18.9872 74.8631C19.7145 74.6182 21.4842 74.281 21.8143 75.2066C21.7802 75.6953 21.4719 76.0065 21.125 76.319C20.7736 76.2158 20.4199 76.0701 20.0709 76.1585L20.0202 76.2759C20.2602 76.54 20.7003 76.6406 21.051 76.7571C21.4425 76.9271 21.6783 77.0848 21.8004 77.4989C22.4006 79.5357 21.2655 79.8641 19.771 80.1629H19.7106C19.2644 80.09 17.733 79.9827 17.6576 79.4696C17.3966 77.6955 19.1884 78.6231 19.9507 78.4128L19.9155 78.2863C19.3365 77.8907 18.7805 77.7742 18.1061 77.4266C17.8327 76.5328 17.8369 76.3861 18.0691 75.4822Z" fill="#004543"/>
<path d="M95.1019 80.1629C94.1498 79.8018 93.5782 79.5389 93.1185 78.5321C92.4483 77.0652 93.0454 75.433 94.5646 74.8415C95.2357 74.5796 95.8328 74.6386 96.5145 74.6767C96.909 74.9208 97.1239 75.5251 97.0227 75.978C96.4484 76.6204 94.82 76.0391 94.938 77.4605C95.0561 78.8853 96.1578 78.3997 96.9504 78.1563C97.0086 79.146 97.2622 79.7157 96.2503 80.1629H95.1019Z" fill="#004543"/>
<path d="M119.885 75.7993C120.692 75.1178 122.039 74.2142 123.122 74.7247C123.628 74.9634 123.758 75.9581 123.303 76.3623C122.804 76.475 121.967 76.2422 121.761 76.7C121.523 77.2329 121.489 78.1195 122.047 78.443C122.86 78.5025 123.024 78.0344 123.604 78.5083C123.879 79.1465 123.46 79.8904 122.822 80.1629H121.712C121.108 79.9245 120.769 79.8312 120.307 79.349C119.432 78.4365 119.363 77.0767 119.826 75.9423C119.845 75.8944 119.865 75.8467 119.885 75.7993Z" fill="#004543"/>
<path d="M153.254 57.2657C152.422 57.4023 148.84 57.3069 148.181 56.8487C148.424 56.728 152.661 56.7309 153.299 56.7368C152.955 56.9816 151.302 56.9503 150.7 57.1108C151.724 57.2462 152.535 57.1735 153.254 57.2657Z" fill="#004543"/>
<path d="M131.252 15.6602L131.251 15.7303C131.243 16.2631 130.897 18.023 131.137 18.3638L131.277 18.0504L131.439 18.058C131.366 18.3965 131.276 19.0237 131.025 19.2315L130.908 19.1311C130.67 18.2706 130.866 16.4835 131.252 15.6602Z" fill="#004543"/>
<path d="M166.112 48.5225C166.178 49.0592 166.318 50.8776 166.024 51.2851C165.676 51.1216 165.407 49.0144 165.396 48.5725C165.554 49.1282 165.644 49.4602 165.884 49.9855L165.982 49.9968C166.114 49.5543 166.1 48.9923 166.112 48.5225Z" fill="#004543"/>
<path d="M125.922 17.1676C125.884 17.453 125.789 17.6911 125.696 17.9624L125.479 18.0339L125.458 17.9931L125.509 18.1121L125.444 17.9972C125.401 17.2864 125.629 16.4143 126.072 15.8528C125.963 16.2882 125.73 16.8228 125.922 17.1676Z" fill="#004543"/>
<path d="M165.347 47.2554C165.6 48.3037 165.503 48.824 165.993 49.8317C165.993 49.4412 165.965 48.307 166.007 47.9634L166.112 48.5224C166.1 48.9923 166.114 49.5542 165.982 49.9967L165.884 49.9854C165.644 49.4601 165.554 49.1281 165.395 48.5724C165.352 48.0719 165.336 47.7571 165.347 47.2554Z" fill="#004543"/>
<path d="M177.652 37.095C177.514 37.7875 177.393 38.1554 177.16 38.8263C177.082 38.4518 176.973 38.4273 176.664 38.1854C177.008 37.8353 177.338 37.4716 177.652 37.095Z" fill="#004543"/>
<path d="M21.051 76.757C20.7003 76.6406 20.2603 76.5399 20.0203 76.2758L20.0709 76.1584C20.4199 76.07 20.7737 76.2157 21.125 76.3189L21.051 76.757Z" fill="#004543"/>
</g>
<defs>
<clipPath id="clip0_2719_11">
<rect width="180.366" height="80.1628" fill="white"/>
</clipPath>
</defs>
</svg>
