<svg width="184" height="61" viewBox="0 0 184 61" fill="none" xmlns="http://www.w3.org/2000/svg">
<g clip-path="url(#clip0_2719_143)">
<path d="M175.585 0C170.91 0.00942203 167.929 3.34236 167.714 7.2722V8.19347C167.786 9.64849 168.251 11.1609 169.143 12.5793C170.909 14.8422 173.056 15.819 175.585 15.8994H175.637C186.115 15.3657 185.602 0.24508 175.617 0.000201276H175.607L175.585 0ZM84.9829 0.0518142V7.84882L79.8849 0.0786702H75.1189L75.15 15.8279L77.4205 15.8185V4.3961L84.923 15.8345L87.29 15.8251V0.0544308L84.9829 0.0518142ZM102.076 0.082897L102.097 2.40169H106.087V15.8268H110.585V2.40169H114.547L114.527 0.082897H102.076ZM123.507 0.082897L123.528 2.40169H127.512V15.8268H132V2.40169H135.957L135.936 0.082897H123.507ZM138.475 0.0923283C138.484 4.0368 138.496 7.98084 138.496 11.9217C138.931 17.1644 149.906 18.0359 150.352 12.0769V0.124417H148.349V10.9685C148.297 12.4015 147.244 13.4968 145.661 13.6139C143.844 13.6553 142.658 12.7807 142.699 10.9203V0.0922708L138.475 0.0923283ZM153.099 0.0923283L153.12 2.42178H157.121V15.8417H161.608V2.42178H165.565L165.545 0.0923283H153.099ZM71.3863 0.11306L67.1986 0.133791L67.1676 15.8403H71.382L71.3863 0.11306ZM121.194 0.11306L117.001 0.133791L116.98 15.8403H121.195L121.194 0.11306ZM48.1936 0.133791C48.9905 0.124369 33.9425 0.185593 3.06623 0.195957C1.79035 0.463316 0.922712 1.45698 0.367284 2.8681C-0.181945 4.5168 -0.114575 6.20821 0.565225 7.94469V7.95032C2.56855 11.6573 8.175 15.6607 17.3802 19.9671C18.6524 20.3692 20.8705 21.9822 24.0473 24.8081C26.2666 27.6522 26.9501 30.0757 26.0983 32.0536C25.1988 34.0751 26.005 35.8603 28.5401 37.414C28.6229 36.6938 29.3433 35.9761 30.6662 35.2559C34.1023 32.8796 34.273 29.6938 31.1801 25.7345C29.9374 24.0786 23.6301 19.7766 12.25 12.8235C10.4332 11.467 9.48436 10.0312 9.41183 8.52868C9.47402 7.01863 9.98078 6.18743 10.9381 6.05997C11.7453 5.98742 12.1893 6.43716 12.2929 7.42016C12.1729 8.82764 12.1729 9.72351 12.2929 10.0924C13.927 12.1981 17.799 14.8459 23.9187 18.0446V7.89676C24.0544 7.00453 24.5457 6.51167 25.3861 6.40803H38.3399C39.0384 6.39861 39.5308 6.43913 39.8126 6.52092C40.6054 6.97792 40.6054 7.62288 39.8126 8.4488C36.8698 10.8981 34.624 12.9032 33.0813 14.4679C31.3192 16.0911 31.4594 17.7601 33.4772 19.4856C39.2532 23.4958 43.1509 27.5117 45.0227 31.5184C49.3072 38.0366 46.8123 49.1012 38.1629 49.8649C34.3975 49.8743 30.6296 49.896 26.7619 49.7924C25.0473 49.7829 24.0716 49.0307 23.8487 47.5754V27.3387C20.3283 23.3758 16.5564 20.6925 12.5388 19.274V46.8526C12.689 50.1902 10.4328 53.1814 5.77535 55.8063C4.51803 56.2892 3.88831 57.1466 3.89566 58.3821C4.12261 59.6873 5.08161 60.3018 6.80346 60.2189C14.8826 59.4552 20.4769 59.2407 23.5917 59.592C31.3162 59.9474 37.2194 60.1226 41.2955 60.1226C47.6529 59.9401 52.7762 57.3412 56.5308 52.0952C64.7159 38.7152 54.5587 24.6155 42.2863 18.6421C39.9357 17.6846 38.8079 17.0432 38.6876 16.4733C38.5943 15.9873 39.2648 15.3107 40.7011 14.433C44.7333 11.6253 54.2463 7.44829 50.7954 1.35056C50.3022 0.649018 49.4322 0.242571 48.1929 0.129507L48.1936 0.133791ZM94.9861 0.164874C91.9958 0.760742 90.4392 2.37575 90.3112 5.00053C90.3112 7.08437 91.7965 8.41246 94.7613 9.45058C99.8574 11.7026 95.7167 16.8557 92.0355 11.7158C91.4107 12.1065 90.7847 12.5075 90.1559 12.8992C91.7023 15.1219 93.76 16.0893 96.341 15.7748C100.253 14.8494 101.746 12.7286 100.839 9.42375C100.356 7.66903 96.6228 5.94995 95.1897 5.27358C92.2798 3.71263 96.8193 0.0823813 99.1042 4.13295C99.6275 3.75264 100.161 3.37649 100.684 3.01379C99.5215 0.842282 97.6329 -0.112944 94.9861 0.164874ZM175.591 2.02311C177.558 2.02311 179.157 4.73328 179.157 8.06356C179.157 11.3941 177.558 14.0988 175.591 14.0988C173.609 14.0988 172.014 11.3941 172.014 8.06356C172.014 4.73328 173.609 2.02311 175.591 2.02311ZM82.4071 23.1703C82.4165 27.1002 82.4165 31.0161 82.4278 34.9461C82.863 40.1631 93.8342 41.0309 94.284 35.1013V23.197H92.2704V33.9928C92.2186 35.4259 91.1758 36.5199 89.5929 36.6328C87.765 36.6743 86.5901 35.7903 86.6315 33.9447V23.1702L82.4071 23.1703ZM67.1611 23.331V39.2196H71.1829V39.1988C71.8845 39.2196 72.6159 39.2196 73.3946 39.2196C74.1987 39.2196 75.0568 39.2188 75.9489 39.1988C78.5299 38.9646 79.8845 37.2831 79.9759 35.4771V35.1237C79.8932 33.4604 78.7357 31.7676 76.4362 31.0914C78.6223 30.5836 79.6383 29.2824 79.4993 27.1875C78.977 23.7293 76.1436 23.3533 73.3946 23.3533C72.6411 23.3533 71.8847 23.3741 71.1829 23.3741L67.1611 23.331ZM114.179 23.3404L108.915 39.1701C111.174 39.1909 111.175 39.1494 111.175 39.1494L112.786 34.4262H115.121H117.515L119.293 39.1494H124.161L118.125 23.3358H115.121L114.179 23.3404ZM158.888 23.3404L153.624 39.1701C155.884 39.1909 155.884 39.1494 155.884 39.1494L157.496 34.4262H159.831H162.225L164.002 39.1494H168.881L162.851 23.3358H159.836L158.888 23.3404ZM181.085 23.3461V31.1431L175.987 23.3782H171.221L171.252 39.1275L173.523 39.1181V27.6904L181.025 39.1287L183.387 39.1193V23.3486L181.085 23.3461ZM135.883 23.3772V31.1581L130.78 23.404L126.024 23.3946L126.055 39.1438H128.315V27.7215L135.828 39.1599L138.19 39.1505V23.3797L135.883 23.3772ZM96.341 23.3979L96.3617 25.7113H100.351V39.1418H104.85V25.7113H108.807L108.786 23.3979H96.341ZM140.488 23.3979L140.509 25.7113H144.493V39.1418H148.992V25.7113H152.954L152.934 23.3979H140.488ZM71.1829 25.4917H73.3946H73.7376C74.6806 25.585 75.2441 26.3632 75.3977 27.8211C75.4071 29.3054 74.8795 29.969 73.7162 30.1774H73.3949H71.1833L71.1829 25.4917ZM115.073 27.1304L115.125 27.2911L116.715 32.1804L115.125 32.2011H113.545L115.073 27.1304ZM159.783 27.1304L159.834 27.2911L161.419 32.1804L159.834 32.2011H158.244L159.783 27.1304ZM71.1829 32.1748C71.9363 32.1748 72.7183 32.123 73.3946 32.2163C74.6118 32.3593 75.5439 32.9199 75.6061 34.8618C75.4785 36.1084 74.7875 36.9044 73.3946 37.1858C72.7946 37.3174 72.0639 37.3411 71.1829 37.2791V32.1748ZM67.1719 44.4219V45.311H183.297V44.4219H67.1719ZM138.416 48.722V52.6419C138.017 52.1621 137.462 51.93 136.745 51.93C135.963 51.93 135.32 52.2118 134.812 52.7818C134.307 53.3517 134.051 54.0394 134.051 54.8436C134.051 55.6518 134.31 56.3418 134.822 56.9159C135.338 57.49 135.984 57.7781 136.766 57.7781C137.103 57.7781 137.418 57.7161 137.714 57.5801C138.007 57.4454 138.234 57.2485 138.394 56.9853H138.415V57.5957H140.327V48.7223L138.416 48.722ZM172.399 48.722V52.6419C172 52.1621 171.445 51.93 170.728 51.93C169.946 51.93 169.295 52.2118 168.79 52.7818C168.282 53.3517 168.029 54.0394 168.029 54.8436C168.029 55.6518 168.29 56.3418 168.805 56.9159C169.317 57.49 169.967 57.7781 170.749 57.7781C171.086 57.7781 171.401 57.7161 171.697 57.5801C171.99 57.4454 172.217 57.2485 172.377 56.9853H172.398V57.5957H174.315V48.7223L172.399 48.722ZM111.442 48.9095C111.146 48.9095 110.89 49.0152 110.682 49.2307C110.473 49.4463 110.371 49.7022 110.371 50.0017C110.371 50.3012 110.474 50.5603 110.682 50.7727C110.89 50.9882 111.146 51.0939 111.442 51.0939C111.735 51.0939 111.985 50.9882 112.198 50.7727C112.406 50.5603 112.509 50.3012 112.509 50.0017C112.509 49.7022 112.405 49.4463 112.198 49.2307C111.986 49.0152 111.735 48.9095 111.442 48.9095ZM164.87 48.9095C164.575 48.9095 164.323 49.0152 164.115 49.2307C163.906 49.4463 163.799 49.7022 163.799 50.0017C163.799 50.3012 163.906 50.5603 164.115 50.7727C164.323 50.9882 164.574 51.0939 164.87 51.0939C165.162 51.0939 165.413 50.9882 165.625 50.7727C165.834 50.5603 165.941 50.3012 165.941 50.0017C165.941 49.7022 165.834 49.4463 165.625 49.2307C165.414 49.0152 165.162 48.9095 164.87 48.9095ZM70.1761 49.5312L67.1291 57.5905H69.314L69.8601 56.1929H72.6928L73.2068 57.5905H75.4025L72.4197 49.5312H70.1761ZM117.536 51.9249C116.685 51.9249 115.972 52.2058 115.394 52.7654C114.817 53.325 114.527 54.0369 114.527 54.9074C114.527 55.7302 114.814 56.4133 115.384 56.9584C115.954 57.5024 116.645 57.7781 117.456 57.7781C117.947 57.7781 118.394 57.6703 118.8 57.4621V55.8181C118.533 56.0668 118.216 56.1932 117.847 56.1932C117.452 56.1932 117.13 56.0689 116.878 55.8129C116.626 55.5611 116.498 55.2409 116.498 54.8492C116.498 54.4689 116.626 54.1559 116.878 53.8958C117.13 53.6399 117.441 53.5103 117.81 53.5103C118.124 53.5103 118.456 53.6398 118.8 53.8958V52.2464C118.424 52.035 118 51.9249 117.536 51.9249ZM145.094 51.9249C144.308 51.9249 143.663 52.212 143.155 52.7819C142.646 53.3519 142.395 54.0395 142.395 54.8437C142.395 55.651 142.65 56.3366 143.166 56.9106C143.677 57.4847 144.327 57.778 145.109 57.778C145.446 57.778 145.761 57.716 146.058 57.5801C146.351 57.4485 146.578 57.2433 146.743 56.9801H146.763V57.5904H148.675V52.1069H146.758V52.6427C146.359 52.168 145.807 51.9249 145.094 51.9249ZM179.072 51.9249C178.285 51.9249 177.641 52.212 177.133 52.7819C176.624 53.3519 176.372 54.0395 176.372 54.8437C176.372 55.651 176.628 56.3366 177.143 56.9106C177.655 57.4847 178.305 57.778 179.087 57.778C179.424 57.778 179.739 57.716 180.036 57.5801C180.329 57.4485 180.561 57.2433 180.721 56.9801H180.741V57.5904H182.653V52.1069H180.736V52.6427C180.337 52.168 179.785 51.9249 179.072 51.9249ZM91.3983 51.9306C90.5102 51.9306 89.7883 52.1855 89.2402 52.7119C88.6889 53.2342 88.4154 53.9527 88.4154 54.8594C88.4154 55.7765 88.7055 56.4917 89.2827 57.0067C89.8599 57.5187 90.6106 57.7726 91.5319 57.7726C92.1899 57.7726 92.7764 57.6139 93.2883 57.2959C93.7992 56.9746 94.1277 56.5073 94.2738 55.8928H92.437C92.2433 56.2296 91.9344 56.3965 91.521 56.3965C90.7241 56.3965 90.3268 55.9923 90.3268 55.1808H94.3484V54.9715C94.3484 54.0316 94.0914 53.2888 93.5723 52.7437C93.0572 52.1986 92.3309 51.9306 91.3983 51.9306ZM124.091 51.9306C123.184 51.9306 122.413 52.1917 121.788 52.7181C121.162 53.2446 120.845 53.9606 120.845 54.8602C120.845 55.7597 121.159 56.4692 121.788 56.9915C122.42 57.5148 123.189 57.7739 124.091 57.7739C125.001 57.7739 125.765 57.5138 126.394 56.9915C127.02 56.4692 127.337 55.7597 127.337 54.8602C127.337 53.9607 127.019 53.2446 126.394 52.7181C125.765 52.1917 125.001 51.9306 124.091 51.9306ZM84.5974 51.9362C84.1839 51.9362 83.8035 51.9984 83.4567 52.1342C83.1095 52.2657 82.8215 52.4782 82.5842 52.7819C82.3469 53.0855 82.2256 53.4513 82.2256 53.8797C82.2256 54.3222 82.3325 54.6517 82.552 54.86C82.7676 55.0724 83.0588 55.2227 83.4246 55.3263C83.5073 55.3357 83.6267 55.3678 83.7728 55.3989C83.9189 55.43 84.0277 55.4609 84.1106 55.4816C84.1933 55.5023 84.2845 55.5334 84.3676 55.5749C84.4609 55.6163 84.5242 55.6681 84.5655 55.7303C84.5966 55.7925 84.6173 55.8609 84.6173 55.9334C84.6173 56.0691 84.5551 56.1718 84.4349 56.2443C84.3075 56.3169 84.1686 56.3512 84.0225 56.3512C83.7955 56.3512 83.5417 56.2993 83.2567 56.1853C82.9707 56.0755 82.7199 55.9449 82.5075 55.7947L81.8162 57.1549C82.4888 57.5756 83.2153 57.787 83.9904 57.787C84.6847 57.787 85.2785 57.6149 85.7791 57.2678C86.2796 56.9238 86.5283 56.4139 86.5283 55.7416C86.5283 54.8753 86.007 54.3347 84.9647 54.119C84.9439 54.119 84.9025 54.1096 84.8361 54.0983C84.7739 54.0889 84.7168 54.0775 84.6754 54.0672C84.6339 54.0578 84.5821 54.0465 84.5201 54.0257C84.4476 54.005 84.4008 53.9843 84.3594 53.9636C84.3179 53.9428 84.2766 53.9117 84.2309 53.8806C84.1894 53.8495 84.1583 53.8081 84.1376 53.7627C84.1169 53.7212 84.1065 53.6799 84.1065 53.6291C84.1065 53.5047 84.1685 53.4073 84.2992 53.3451C84.4266 53.2831 84.5625 53.2518 84.7013 53.2518C85.0599 53.2518 85.4008 53.3451 85.7293 53.5192L86.3666 52.2821C85.8578 52.051 85.2675 51.9339 84.5995 51.9339L84.5974 51.9362ZM86.3645 52.2844C86.3683 52.2859 86.372 52.2882 86.3739 52.2901L86.3682 52.2807L86.3645 52.2844ZM71.2793 52.0275H71.3L72.1404 54.5871H70.4321L71.2793 52.0275ZM100.148 52.0331C99.3443 52.0331 98.7625 52.3564 98.4081 53.0082H98.3874V52.1087L96.4702 52.1144V57.598H98.382V55.3864C98.382 54.8559 98.4753 54.4496 98.6712 54.1601C98.8649 53.871 99.2069 53.7259 99.7043 53.7259C100.034 53.7259 100.304 53.7881 100.513 53.9083V52.034L100.148 52.0331ZM101.894 52.1057L104.722 57.5892H105.937L108.754 52.1057H106.612L105.327 54.9171L104.036 52.1057H101.894ZM155.327 52.1057L158.149 57.5892H159.37L162.182 52.1057H160.04L158.76 54.9171L157.469 52.1057H155.327ZM110.484 52.1113V57.5949H112.395V52.1113H110.484ZM163.911 52.1113V57.5949H165.823V52.1113H163.911ZM91.4946 53.1877C91.761 53.1877 91.9952 53.2704 92.1962 53.4291C92.4014 53.5867 92.5247 53.7939 92.5765 54.0498H90.3595C90.4113 53.7763 90.5449 53.5628 90.7502 53.4125C90.9585 53.2624 91.2055 53.1877 91.4946 53.1877ZM124.091 53.6156C124.471 53.6156 124.771 53.7327 124.991 53.9742C125.209 54.2115 125.317 54.5006 125.317 54.8519C125.317 55.2063 125.21 55.5058 124.991 55.7359C124.771 55.9659 124.471 56.0841 124.091 56.0841C123.715 56.0841 123.411 55.9659 123.192 55.7359C122.969 55.5058 122.86 55.2063 122.86 54.8519C122.86 54.5016 122.969 54.2115 123.192 53.9742C123.41 53.7327 123.715 53.6156 124.091 53.6156ZM137.249 53.6156C137.629 53.6156 137.928 53.737 138.148 53.9742C138.367 54.2115 138.48 54.5048 138.48 54.8519C138.48 55.2104 138.368 55.5017 138.148 55.7359C137.928 55.9659 137.629 56.0841 137.249 56.0841C136.872 56.0841 136.574 55.9659 136.354 55.7359C136.131 55.5017 136.023 55.2104 136.023 54.8519C136.023 54.5048 136.132 54.2115 136.354 53.9742C136.573 53.7359 136.872 53.6156 137.249 53.6156ZM145.597 53.6156C145.977 53.6156 146.277 53.737 146.497 53.9742C146.716 54.2157 146.828 54.5048 146.828 54.8519C146.828 55.2104 146.716 55.5017 146.497 55.7359C146.277 55.9659 145.977 56.0841 145.597 56.0841C145.221 56.0841 144.922 55.9659 144.703 55.7359C144.483 55.5017 144.365 55.2104 144.365 54.8519C144.365 54.5048 144.482 54.2146 144.703 53.9742C144.921 53.7369 145.221 53.6156 145.597 53.6156ZM171.232 53.6156C171.612 53.6156 171.912 53.737 172.131 53.9742C172.35 54.2115 172.458 54.5048 172.458 54.8519C172.458 55.2104 172.351 55.5017 172.131 55.7359C171.912 55.9659 171.612 56.0841 171.232 56.0841C170.856 56.0841 170.557 55.9659 170.337 55.7359C170.115 55.5017 170 55.2104 170 54.8519C170 54.5048 170.115 54.2115 170.337 53.9742C170.556 53.7359 170.856 53.6156 171.232 53.6156ZM179.575 53.6156C179.955 53.6156 180.255 53.737 180.474 53.9742C180.694 54.2157 180.806 54.5048 180.806 54.8519C180.806 55.2104 180.694 55.5017 180.474 55.7359C180.255 55.9659 179.955 56.0841 179.575 56.0841C179.199 56.0841 178.9 55.9659 178.681 55.7359C178.461 55.5017 178.349 55.2104 178.349 54.8519C178.349 54.5048 178.461 54.2146 178.681 53.9742C178.899 53.7369 179.199 53.6156 179.575 53.6156ZM116.985 57.9158L115.619 59.6026L116.439 60.1218L118.024 58.5956L116.985 57.9158Z" fill="#004543"/>
</g>
<defs>
<clipPath id="clip0_2719_143">
<rect width="183.387" height="60.2263" fill="white"/>
</clipPath>
</defs>
</svg>
